<svg xmlns="http://www.w3.org/2000/svg" width="662" height="249.3125" style="
        width:662px;
        height:249.3125px;
        background: #FFF;
        fill: none;
">
        
        <svg xmlns="http://www.w3.org/2000/svg" class="role-diagram-draw-area"><g class="shapes-region" style="stroke: black; fill: none;"><g class="composite-shape"><path class="real" d=" M290,6 C290,2.69 292.69,0 296,0 L354,0 C357.31,0 360,2.69 360,6 L360,24 C360,27.31 357.31,30 354,30 L296,30 C292.69,30 290,27.31 290,24 Z" style="stroke-width: 1; stroke: rgb(0, 0, 0); fill: none;"/></g><g class="composite-shape"><path class="real" d=" M90,53 C90,49.69 92.69,47 96,47 L187.5,47 C190.81,47 193.5,49.69 193.5,53 L193.5,71 C193.5,74.31 190.81,77 187.5,77 L96,77 C92.69,77 90,74.31 90,71 Z" style="stroke-width: 1; stroke: rgb(0, 0, 0); fill: none;"/></g><g class="composite-shape"><path class="real" d=" M20,108 C20,104.69 22.69,102 26,102 L84,102 C87.31,102 90,104.69 90,108 L90,126 C90,129.31 87.31,132 84,132 L26,132 C22.69,132 20,129.31 20,126 Z" style="stroke-width: 1; stroke: rgb(0, 0, 0); fill: none;"/></g><g class="composite-shape"><path class="real" d=" M286,96 C286,92.69 288.69,90 292,90 L350,90 C353.31,90 356,92.69 356,96 L356,114 C356,117.31 353.31,120 350,120 L292,120 C288.69,120 286,117.31 286,114 Z" style="stroke-width: 1; stroke: rgb(0, 0, 0); fill: none;"/></g><g class="composite-shape"><path class="real" d=" M376.5,66 C376.5,62.69 379.19,60 382.5,60 L444,60 C447.31,60 450,62.69 450,66 L450,84 C450,87.31 447.31,90 444,90 L382.5,90 C379.19,90 376.5,87.31 376.5,84 Z" style="stroke-width: 1; stroke: rgb(0, 0, 0); fill: none;"/></g><g class="composite-shape"><path class="real" d=" M99,109 C99,105.69 101.69,103 105,103 L163,103 C166.31,103 169,105.69 169,109 L169,127 C169,130.31 166.31,133 163,133 L105,133 C101.69,133 99,130.31 99,127 Z" style="stroke-width: 1; stroke: rgb(0, 0, 0); fill: none;"/></g><g class="composite-shape"><path class="real" d=" M180,108 C180,104.69 182.69,102 186,102 L264,102 C267.31,102 270,104.69 270,108 L270,126 C270,129.31 267.31,132 264,132 L186,132 C182.69,132 180,129.31 180,126 Z" style="stroke-width: 1; stroke: rgb(0, 0, 0); fill: none;"/></g><g class="composite-shape"><path class="real" d=" M510,51 C510,47.69 512.69,45 516,45 L606.5,45 C609.81,45 612.5,47.69 612.5,51 L612.5,69 C612.5,72.31 609.81,75 606.5,75 L516,75 C512.69,75 510,72.31 510,69 Z" style="stroke-width: 1; stroke: rgb(0, 0, 0); fill: none;"/></g><g class="composite-shape"><path class="real" d=" M184,170 C184,166.69 186.69,164 190,164 L248,164 C251.31,164 254,166.69 254,170 L254,188 C254,191.31 251.31,194 248,194 L190,194 C186.69,194 184,191.31 184,188 Z" style="stroke-width: 1; stroke: rgb(0, 0, 0); fill: none;"/></g><g class="composite-shape"><path class="real" d=" M270,170 C270,166.69 272.69,164 276,164 L375,164 C378.31,164 381,166.69 381,170 L381,188 C381,191.31 378.31,194 375,194 L276,194 C272.69,194 270,191.31 270,188 Z" style="stroke-width: 1; stroke: rgb(0, 0, 0); fill: none;"/></g><g class="composite-shape"><path class="real" d=" M379,115 C379,111.69 381.69,109 385,109 L443,109 C446.31,109 449,111.69 449,115 L449,133 C449,136.31 446.31,139 443,139 L385,139 C381.69,139 379,136.31 379,133 Z" style="stroke-width: 1; stroke: rgb(0, 0, 0); fill: none;"/></g><g class="composite-shape"><path class="real" d=" M429,157 C429,153.69 431.69,151 435,151 L493,151 C496.31,151 499,153.69 499,157 L499,175 C499,178.31 496.31,181 493,181 L435,181 C431.69,181 429,178.31 429,175 Z" style="stroke-width: 1; stroke: rgb(0, 0, 0); fill: none;"/></g><g class="composite-shape"><path class="real" d=" M582,201 C582,197.69 584.69,195 588,195 L646,195 C649.31,195 652,197.69 652,201 L652,219 C652,222.31 649.31,225 646,225 L588,225 C584.69,225 582,222.31 582,219 Z" style="stroke-width: 1; stroke: rgb(0, 0, 0); fill: none;"/></g><g class="composite-shape"><path class="real" d=" M524,107.54 C524,103.93 526.93,101 530.54,101 L587.46,101 C591.07,101 594,103.93 594,107.54 L594,127.15 C594,130.76 591.07,133.69 587.46,133.69 L530.54,133.69 C526.93,133.69 524,130.76 524,127.15 Z" style="stroke-width: 1; stroke: rgb(0, 0, 0); fill: none;"/></g><g class="composite-shape"><path class="real" d=" M522.5,156 C522.5,152.69 525.19,150 528.5,150 L645.5,150 C648.81,150 651.5,152.69 651.5,156 L651.5,174 C651.5,177.31 648.81,180 645.5,180 L528.5,180 C525.19,180 522.5,177.31 522.5,174 Z" style="stroke-width: 1; stroke: rgb(0, 0, 0); fill: none;"/></g><g class="composite-shape"><path class="real" d=" M420,201 C420,197.69 422.69,195 426,195 L546.5,195 C549.81,195 552.5,197.69 552.5,201 L552.5,219 C552.5,222.31 549.81,225 546.5,225 L426,225 C422.69,225 420,222.31 420,219 Z" style="stroke-width: 1; stroke: rgb(0, 0, 0); fill: none;"/></g><g class="arrow-line"><path class="connection real" stroke-dasharray="" d="  M330,30 L151.99,45.51" style="stroke: rgb(0, 0, 0); stroke-width: 1; fill: none;"/><g stroke="#000" transform="matrix(0.9962250604929359,-0.08680799989543646,0.08680799989543646,0.9962250604929359,150,45.6875)" style="stroke: rgb(0, 0, 0); stroke-width: 1;"><path d=" M10.93,-3.29 Q4.96,-0.45 0,0 Q4.96,0.45 10.93,3.29"/></g></g><g class="arrow-line"><path class="connection real" stroke-dasharray="" d="  M330,30 L418.1,59.37" style="stroke: rgb(0, 0, 0); stroke-width: 1; fill: none;"/><g stroke="#000" transform="matrix(-0.948710608132914,-0.31614582397380564,0.31614582397380564,-0.948710608132914,419.99999999999994,60)" style="stroke: rgb(0, 0, 0); stroke-width: 1;"><path d=" M10.93,-3.29 Q4.96,-0.45 0,0 Q4.96,0.45 10.93,3.29"/></g></g><g class="arrow-line"><path class="connection real" stroke-dasharray="" d="  M330,30 L330,88" style="stroke: rgb(0, 0, 0); stroke-width: 1; fill: none;"/><g stroke="#000" transform="matrix(-1.8369701987210297e-16,-1,1,-1.8369701987210297e-16,330,90)" style="stroke: rgb(0, 0, 0); stroke-width: 1;"><path d=" M10.93,-3.29 Q4.96,-0.45 0,0 Q4.96,0.45 10.93,3.29"/></g></g><g class="arrow-line"><path class="connection real" stroke-dasharray="" d="  M330,30 L555.5,43.57" style="stroke: rgb(0, 0, 0); stroke-width: 1; fill: none;"/><g stroke="#000" transform="matrix(-0.9981981810026931,-0.06000326193562043,0.06000326193562043,-0.9981981810026931,557.4999999999999,43.6875)" style="stroke: rgb(0, 0, 0); stroke-width: 1;"><path d=" M10.93,-3.29 Q4.96,-0.45 0,0 Q4.96,0.45 10.93,3.29"/></g></g><g class="arrow-line"><path class="connection real" stroke-dasharray="" d="  M150,76.69 L61.93,101.15" style="stroke: rgb(0, 0, 0); stroke-width: 1; fill: none;"/><g stroke="#000" transform="matrix(0.9635371107117885,-0.26757473027395295,0.26757473027395295,0.9635371107117885,60,101.6875)" style="stroke: rgb(0, 0, 0); stroke-width: 1;"><path d=" M10.93,-3.29 Q4.96,-0.45 0,0 Q4.96,0.45 10.93,3.29"/></g></g><g class="arrow-line"><path class="connection real" stroke-dasharray="" d="  M150,76.69 L135.5,101.95" style="stroke: rgb(0, 0, 0); stroke-width: 1; fill: none;"/><g stroke="#000" transform="matrix(0.4978824102228076,-0.8672445477434424,0.8672445477434424,0.4978824102228076,134.5,103.68749999999999)" style="stroke: rgb(0, 0, 0); stroke-width: 1;"><path d=" M10.93,-3.29 Q4.96,-0.45 0,0 Q4.96,0.45 10.93,3.29"/></g></g><g class="arrow-line"><path class="connection real" stroke-dasharray="" d="  M150,76.69 L222.61,102.03" style="stroke: rgb(0, 0, 0); stroke-width: 1; fill: none;"/><g stroke="#000" transform="matrix(-0.9441465478859226,-0.3295258656237706,0.3295258656237706,-0.9441465478859226,224.5,102.68749999999997)" style="stroke: rgb(0, 0, 0); stroke-width: 1;"><path d=" M10.93,-3.29 Q4.96,-0.45 0,0 Q4.96,0.45 10.93,3.29"/></g></g><g class="arrow-line"><path class="connection real" stroke-dasharray="" d="  M319.5,120 L211.85,163.93" style="stroke: rgb(0, 0, 0); stroke-width: 1; fill: none;"/><g stroke="#000" transform="matrix(0.9258705848099947,-0.3778407868184672,0.3778407868184672,0.9258705848099947,210,164.6875)" style="stroke: rgb(0, 0, 0); stroke-width: 1;"><path d=" M10.93,-3.29 Q4.96,-0.45 0,0 Q4.96,0.45 10.93,3.29"/></g></g><g class="arrow-line"><path class="connection real" stroke-dasharray="" d="  M319.5,120 L329.52,160.75" style="stroke: rgb(0, 0, 0); stroke-width: 1; fill: none;"/><g stroke="#000" transform="matrix(-0.238872432852676,-0.9710509568622255,0.9710509568622255,-0.238872432852676,330,162.6875)" style="stroke: rgb(0, 0, 0); stroke-width: 1;"><path d=" M10.93,-3.29 Q4.96,-0.45 0,0 Q4.96,0.45 10.93,3.29"/></g></g><g class="arrow-line"><path class="connection real" stroke-dasharray="" d="  M420,90 L420,107.69" style="stroke: rgb(0, 0, 0); stroke-width: 1; fill: none;"/><g stroke="#000" transform="matrix(-1.8369701987210297e-16,-1,1,-1.8369701987210297e-16,420,109.6875)" style="stroke: rgb(0, 0, 0); stroke-width: 1;"><path d=" M10.93,-3.29 Q4.96,-0.45 0,0 Q4.96,0.45 10.93,3.29"/></g></g><g class="arrow-line"><path class="connection real" stroke-dasharray="" d="  M559,74.69 L558.54,99.69" style="stroke: rgb(0, 0, 0); stroke-width: 1; fill: none;"/><g stroke="#000" transform="matrix(0.018499434734501035,-0.9998288708146529,0.9998288708146529,0.018499434734501035,558.5,101.6875)" style="stroke: rgb(0, 0, 0); stroke-width: 1;"><path d=" M10.93,-3.29 Q4.96,-0.45 0,0 Q4.96,0.45 10.93,3.29"/></g></g><g class="arrow-line"><path class="connection real" stroke-dasharray="" d="  M559.5,133.69 L466.47,149.66" style="stroke: rgb(0, 0, 0); stroke-width: 1; fill: none;"/><g stroke="#000" transform="matrix(0.9855856011113383,-0.16917748928862236,0.16917748928862236,0.9855856011113383,464.5,150)" style="stroke: rgb(0, 0, 0); stroke-width: 1;"><path d=" M10.93,-3.29 Q4.96,-0.45 0,0 Q4.96,0.45 10.93,3.29"/></g></g><g class="arrow-line"><path class="connection real" stroke-dasharray="" d="  M559.5,133.69 L598.14,149.25" style="stroke: rgb(0, 0, 0); stroke-width: 1; fill: none;"/><g stroke="#000" transform="matrix(-0.9275756332169866,-0.37363544353032996,0.37363544353032996,-0.9275756332169866,599.9999999999999,150.00000000000006)" style="stroke: rgb(0, 0, 0); stroke-width: 1;"><path d=" M10.93,-3.29 Q4.96,-0.45 0,0 Q4.96,0.45 10.93,3.29"/></g></g><g class="arrow-line"><path class="connection real" stroke-dasharray="" d="  M586.5,180 L481.98,194.41" style="stroke: rgb(0, 0, 0); stroke-width: 1; fill: none;"/><g stroke="#000" transform="matrix(0.9906290290584256,-0.13658011124157418,0.13658011124157418,0.9906290290584256,480,194.6875)" style="stroke: rgb(0, 0, 0); stroke-width: 1;"><path d=" M10.93,-3.29 Q4.96,-0.45 0,0 Q4.96,0.45 10.93,3.29"/></g></g><g class="arrow-line"><path class="connection real" stroke-dasharray="" d="  M586.5,180 L628.13,195.97" style="stroke: rgb(0, 0, 0); stroke-width: 1; fill: none;"/><g stroke="#000" transform="matrix(-0.9336429592841732,-0.3582050035651258,0.3582050035651258,-0.9336429592841732,630.0000000000001,196.6875)" style="stroke: rgb(0, 0, 0); stroke-width: 1;"><path d=" M10.93,-3.29 Q4.96,-0.45 0,0 Q4.96,0.45 10.93,3.29"/></g></g><g/></g><g/><g/><!-- react-empty: 1668 --></svg>
        <svg xmlns="http://www.w3.org/2000/svg" width="660" height="247.3125" style="width:660px;height:247.3125px;font-family:Asana-Math, Asana;background:#FFF;"><g><g><text x="305.2625427246094" y="6.199981689453125" style="white-space:pre;stroke:none;fill:rgb(0, 0, 0);font-size:15px;font-family:Arial, Helvetica, sans-serif;font-weight:400;font-style:normal;dominant-baseline:text-before-edge;text-decoration:none solid rgb(0, 0, 0);">For</text><text x="327.7625427246094" y="6.199981689453125" style="white-space:pre;stroke:none;fill:rgb(74, 144, 226);font-size:15px;font-family:Arial, Helvetica, sans-serif;font-weight:400;font-style:normal;dominant-baseline:text-before-edge;text-decoration:none solid rgb(74, 144, 226);"> </text><text x="331.9375305175781" y="6.199981689453125" style="white-space:pre;stroke:none;fill:rgb(74, 144, 226);font-size:15px;font-family:Arial, Helvetica, sans-serif;font-weight:400;font-style:normal;dominant-baseline:text-before-edge;text-decoration:none solid rgb(74, 144, 226);">(</text><g><g><g><g style="transform:matrix(1,0,0,1,336.9375305175781,19.79998779296875);"><path d="M668 288C668 369 637 443 585 497L639 557L604 591L548 529C498 568 436 591 367 591C200 591 65 456 65 288C65 209 96 137 147 82L92 21L126 -13L183 49C234 11 298 -13 367 -13C534 -13 668 122 668 288ZM621 288C621 148 507 35 367 35C309 35 257 54 215 85L554 462C596 417 621 356 621 288ZM517 495L179 118C138 163 113 223 113 288C113 429 226 543 367 543C423 543 475 525 517 495Z" stroke="rgb(74, 144, 226)" stroke-width="8" fill="rgb(74, 144, 226)" style="transform:matrix(0.012,0,0,-0.012,0,0);"></path></g></g></g></g><text x="345.7375183105469" y="6.199981689453125" style="white-space:pre;stroke:none;fill:rgb(74, 144, 226);font-size:15px;font-family:Arial, Helvetica, sans-serif;font-weight:400;font-style:normal;dominant-baseline:text-before-edge;text-decoration:none solid rgb(74, 144, 226);">)</text></g></g><g><g><text x="92.32501220703125" y="53.199981689453125" style="white-space:pre;stroke:none;fill:rgb(0, 0, 0);font-size:15px;font-family:Arial, Helvetica, sans-serif;font-weight:400;font-style:normal;dominant-baseline:text-before-edge;text-decoration:none solid rgb(0, 0, 0);">Declaration</text><text x="168.20004272460938" y="53.199981689453125" style="white-space:pre;stroke:none;fill:rgb(74, 144, 226);font-size:15px;font-family:Arial, Helvetica, sans-serif;font-weight:400;font-style:normal;dominant-baseline:text-before-edge;text-decoration:none solid rgb(74, 144, 226);"> </text><text x="172.37503051757812" y="53.199981689453125" style="white-space:pre;stroke:none;fill:rgb(74, 144, 226);font-size:15px;font-family:Arial, Helvetica, sans-serif;font-weight:400;font-style:normal;dominant-baseline:text-before-edge;text-decoration:none solid rgb(74, 144, 226);">(</text><g><g><g><g style="transform:matrix(1,0,0,1,177.37503051757812,66.79998779296875);"><path d="M668 288C668 369 637 443 585 497L639 557L604 591L548 529C498 568 436 591 367 591C200 591 65 456 65 288C65 209 96 137 147 82L92 21L126 -13L183 49C234 11 298 -13 367 -13C534 -13 668 122 668 288ZM621 288C621 148 507 35 367 35C309 35 257 54 215 85L554 462C596 417 621 356 621 288ZM517 495L179 118C138 163 113 223 113 288C113 429 226 543 367 543C423 543 475 525 517 495Z" stroke="rgb(74, 144, 226)" stroke-width="8" fill="rgb(74, 144, 226)" style="transform:matrix(0.012,0,0,-0.012,0,0);"></path></g></g></g></g><text x="186.17501831054688" y="53.199981689453125" style="white-space:pre;stroke:none;fill:rgb(74, 144, 226);font-size:15px;font-family:Arial, Helvetica, sans-serif;font-weight:400;font-style:normal;dominant-baseline:text-before-edge;text-decoration:none solid rgb(74, 144, 226);">)</text></g></g><g><g><text x="290.3562927246094" y="96.19998168945312" style="white-space:pre;stroke:none;fill:rgb(0, 0, 0);font-size:15px;font-family:Arial, Helvetica, sans-serif;font-weight:400;font-style:normal;dominant-baseline:text-before-edge;text-decoration:none solid rgb(0, 0, 0);">Binop </text><text x="332.8937683105469" y="96.19998168945312" style="white-space:pre;stroke:none;fill:rgb(74, 144, 226);font-size:15px;font-family:Arial, Helvetica, sans-serif;font-weight:400;font-style:normal;dominant-baseline:text-before-edge;text-decoration:none solid rgb(74, 144, 226);">(+)</text></g></g><g><g><text x="381.2250061035156" y="68.19998168945312" style="white-space:pre;stroke:none;fill:rgb(0, 0, 0);font-size:15px;font-family:Arial, Helvetica, sans-serif;font-weight:400;font-style:normal;dominant-baseline:text-before-edge;text-decoration:none solid rgb(0, 0, 0);">Unop </text><text x="421.2625427246094" y="68.19998168945312" style="white-space:pre;stroke:none;fill:rgb(74, 144, 226);font-size:15px;font-family:Arial, Helvetica, sans-serif;font-weight:400;font-style:normal;dominant-baseline:text-before-edge;text-decoration:none solid rgb(74, 144, 226);">(++)</text></g></g><g><g><text x="23.737518310546875" y="108.19998168945312" style="white-space:pre;stroke:none;fill:rgb(0, 0, 0);font-size:15px;font-family:Arial, Helvetica, sans-serif;font-weight:400;font-style:normal;dominant-baseline:text-before-edge;text-decoration:none solid rgb(0, 0, 0);">Type </text><text x="60.425018310546875" y="108.19998168945312" style="white-space:pre;stroke:none;fill:rgb(74, 144, 226);font-size:15px;font-family:Arial, Helvetica, sans-serif;font-weight:400;font-style:normal;dominant-baseline:text-before-edge;text-decoration:none solid rgb(74, 144, 226);">(int)</text></g></g><g><g><text x="111.08126831054688" y="109.19998168945312" style="white-space:pre;stroke:none;fill:rgb(0, 0, 0);font-size:15px;font-family:Arial, Helvetica, sans-serif;font-weight:400;font-style:normal;dominant-baseline:text-before-edge;text-decoration:none solid rgb(0, 0, 0);">ID </text><text x="130.25625610351562" y="109.19998168945312" style="white-space:pre;stroke:none;fill:rgb(74, 144, 226);font-size:15px;font-family:Arial, Helvetica, sans-serif;font-weight:400;font-style:normal;dominant-baseline:text-before-edge;text-decoration:none solid rgb(74, 144, 226);">(ctr)</text></g></g><g><g><text x="183.72500610351562" y="108.19998168945312" style="white-space:pre;stroke:none;fill:rgb(0, 0, 0);font-size:15px;font-family:Arial, Helvetica, sans-serif;font-weight:400;font-style:normal;dominant-baseline:text-before-edge;text-decoration:none solid rgb(0, 0, 0);">Constant </text><text x="247.93753051757812" y="108.19998168945312" style="white-space:pre;stroke:none;fill:rgb(74, 144, 226);font-size:15px;font-family:Arial, Helvetica, sans-serif;font-weight:400;font-style:normal;dominant-baseline:text-before-edge;text-decoration:none solid rgb(74, 144, 226);">(0)</text></g></g><g><g><text x="196.08126831054688" y="170.19998168945312" style="white-space:pre;stroke:none;fill:rgb(0, 0, 0);font-size:15px;font-family:Arial, Helvetica, sans-serif;font-weight:400;font-style:normal;dominant-baseline:text-before-edge;text-decoration:none solid rgb(0, 0, 0);">ID </text><text x="215.25625610351562" y="170.19998168945312" style="white-space:pre;stroke:none;fill:rgb(74, 144, 226);font-size:15px;font-family:Arial, Helvetica, sans-serif;font-weight:400;font-style:normal;dominant-baseline:text-before-edge;text-decoration:none solid rgb(74, 144, 226);">(ctr)</text></g></g><g><g><text x="280.5562438964844" y="170.19998168945312" style="white-space:pre;stroke:none;fill:rgb(0, 0, 0);font-size:15px;font-family:Arial, Helvetica, sans-serif;font-weight:400;font-style:normal;dominant-baseline:text-before-edge;text-decoration:none solid rgb(0, 0, 0);">Constant </text><text x="344.7687683105469" y="170.19998168945312" style="white-space:pre;stroke:none;fill:rgb(74, 144, 226);font-size:15px;font-family:Arial, Helvetica, sans-serif;font-weight:400;font-style:normal;dominant-baseline:text-before-edge;text-decoration:none solid rgb(74, 144, 226);">(10)</text></g></g><g><g><text x="391.0812683105469" y="115.19998168945312" style="white-space:pre;stroke:none;fill:rgb(0, 0, 0);font-size:15px;font-family:Arial, Helvetica, sans-serif;font-weight:400;font-style:normal;dominant-baseline:text-before-edge;text-decoration:none solid rgb(0, 0, 0);">ID </text><text x="410.2562561035156" y="115.19998168945312" style="white-space:pre;stroke:none;fill:rgb(74, 144, 226);font-size:15px;font-family:Arial, Helvetica, sans-serif;font-weight:400;font-style:normal;dominant-baseline:text-before-edge;text-decoration:none solid rgb(74, 144, 226);">(ctr)</text></g></g><g><g><text x="512.0687561035156" y="51.199981689453125" style="white-space:pre;stroke:none;fill:rgb(0, 0, 0);font-size:15px;font-family:Arial, Helvetica, sans-serif;font-weight:400;font-style:normal;dominant-baseline:text-before-edge;text-decoration:none solid rgb(0, 0, 0);">Compound</text><text x="585.4562683105469" y="51.199981689453125" style="white-space:pre;stroke:none;fill:rgb(74, 144, 226);font-size:15px;font-family:Arial, Helvetica, sans-serif;font-weight:400;font-style:normal;dominant-baseline:text-before-edge;text-decoration:none solid rgb(74, 144, 226);"> </text><text x="589.6312561035156" y="51.199981689453125" style="white-space:pre;stroke:none;fill:rgb(74, 144, 226);font-size:15px;font-family:Arial, Helvetica, sans-serif;font-weight:400;font-style:normal;dominant-baseline:text-before-edge;text-decoration:none solid rgb(74, 144, 226);">(</text><g><g><g><g style="transform:matrix(1,0,0,1,594.6312561035156,64.79998779296875);"><path d="M668 288C668 369 637 443 585 497L639 557L604 591L548 529C498 568 436 591 367 591C200 591 65 456 65 288C65 209 96 137 147 82L92 21L126 -13L183 49C234 11 298 -13 367 -13C534 -13 668 122 668 288ZM621 288C621 148 507 35 367 35C309 35 257 54 215 85L554 462C596 417 621 356 621 288ZM517 495L179 118C138 163 113 223 113 288C113 429 226 543 367 543C423 543 475 525 517 495Z" stroke="rgb(74, 144, 226)" stroke-width="8" fill="rgb(74, 144, 226)" style="transform:matrix(0.012,0,0,-0.012,0,0);"></path></g></g></g></g><text x="603.4312438964844" y="51.199981689453125" style="white-space:pre;stroke:none;fill:rgb(74, 144, 226);font-size:15px;font-family:Arial, Helvetica, sans-serif;font-weight:400;font-style:normal;dominant-baseline:text-before-edge;text-decoration:none solid rgb(74, 144, 226);">)</text></g></g><g><g><text x="432.7437438964844" y="157.19998168945312" style="white-space:pre;stroke:none;fill:rgb(0, 0, 0);font-size:15px;font-family:Arial, Helvetica, sans-serif;font-weight:400;font-style:normal;dominant-baseline:text-before-edge;text-decoration:none solid rgb(0, 0, 0);">ID </text><text x="451.9187927246094" y="157.19998168945312" style="white-space:pre;stroke:none;fill:rgb(74, 144, 226);font-size:15px;font-family:Arial, Helvetica, sans-serif;font-weight:400;font-style:normal;dominant-baseline:text-before-edge;text-decoration:none solid rgb(74, 144, 226);">(printf)</text></g></g><g><g><text x="594.0812683105469" y="201.20001220703125" style="white-space:pre;stroke:none;fill:rgb(0, 0, 0);font-size:15px;font-family:Arial, Helvetica, sans-serif;font-weight:400;font-style:normal;dominant-baseline:text-before-edge;text-decoration:none solid rgb(0, 0, 0);">ID </text><text x="613.2562561035156" y="201.20001220703125" style="white-space:pre;stroke:none;fill:rgb(74, 144, 226);font-size:15px;font-family:Arial, Helvetica, sans-serif;font-weight:400;font-style:normal;dominant-baseline:text-before-edge;text-decoration:none solid rgb(74, 144, 226);">(ctr)</text></g></g><g><g><text x="537.5874938964844" y="108.53750610351562" style="white-space:pre;stroke:none;fill:rgb(0, 0, 0);font-size:15px;font-family:Arial, Helvetica, sans-serif;font-weight:400;font-style:normal;dominant-baseline:text-before-edge;text-decoration:none solid rgb(0, 0, 0);">Call</text><text x="563.4375305175781" y="108.53750610351562" style="white-space:pre;stroke:none;fill:rgb(74, 144, 226);font-size:15px;font-family:Arial, Helvetica, sans-serif;font-weight:400;font-style:normal;dominant-baseline:text-before-edge;text-decoration:none solid rgb(74, 144, 226);"> </text><text x="567.6125183105469" y="108.53750610351562" style="white-space:pre;stroke:none;fill:rgb(74, 144, 226);font-size:15px;font-family:Arial, Helvetica, sans-serif;font-weight:400;font-style:normal;dominant-baseline:text-before-edge;text-decoration:none solid rgb(74, 144, 226);">(</text><g><g><g><g style="transform:matrix(1,0,0,1,572.6125183105469,122.13748168945312);"><path d="M668 288C668 369 637 443 585 497L639 557L604 591L548 529C498 568 436 591 367 591C200 591 65 456 65 288C65 209 96 137 147 82L92 21L126 -13L183 49C234 11 298 -13 367 -13C534 -13 668 122 668 288ZM621 288C621 148 507 35 367 35C309 35 257 54 215 85L554 462C596 417 621 356 621 288ZM517 495L179 118C138 163 113 223 113 288C113 429 226 543 367 543C423 543 475 525 517 495Z" stroke="rgb(74, 144, 226)" stroke-width="8" fill="rgb(74, 144, 226)" style="transform:matrix(0.012,0,0,-0.012,0,0);"></path></g></g></g></g><text x="581.4125061035156" y="108.53750610351562" style="white-space:pre;stroke:none;fill:rgb(74, 144, 226);font-size:15px;font-family:Arial, Helvetica, sans-serif;font-weight:400;font-style:normal;dominant-baseline:text-before-edge;text-decoration:none solid rgb(74, 144, 226);">)</text></g></g><g><g><text x="525.6562805175781" y="156.19998168945312" style="white-space:pre;stroke:none;fill:rgb(0, 0, 0);font-size:15px;font-family:Arial, Helvetica, sans-serif;font-weight:400;font-style:normal;dominant-baseline:text-before-edge;text-decoration:none solid rgb(0, 0, 0);">Expression List</text><text x="627.3688049316406" y="156.19998168945312" style="white-space:pre;stroke:none;fill:rgb(74, 144, 226);font-size:15px;font-family:Arial, Helvetica, sans-serif;font-weight:400;font-style:normal;dominant-baseline:text-before-edge;text-decoration:none solid rgb(74, 144, 226);"> </text><text x="631.5437316894531" y="156.19998168945312" style="white-space:pre;stroke:none;fill:rgb(74, 144, 226);font-size:15px;font-family:Arial, Helvetica, sans-serif;font-weight:400;font-style:normal;dominant-baseline:text-before-edge;text-decoration:none solid rgb(74, 144, 226);">(</text><g><g><g><g style="transform:matrix(1,0,0,1,636.5437316894531,169.79998779296875);"><path d="M668 288C668 369 637 443 585 497L639 557L604 591L548 529C498 568 436 591 367 591C200 591 65 456 65 288C65 209 96 137 147 82L92 21L126 -13L183 49C234 11 298 -13 367 -13C534 -13 668 122 668 288ZM621 288C621 148 507 35 367 35C309 35 257 54 215 85L554 462C596 417 621 356 621 288ZM517 495L179 118C138 163 113 223 113 288C113 429 226 543 367 543C423 543 475 525 517 495Z" stroke="rgb(74, 144, 226)" stroke-width="8" fill="rgb(74, 144, 226)" style="transform:matrix(0.012,0,0,-0.012,0,0);"></path></g></g></g></g><text x="645.3437805175781" y="156.19998168945312" style="white-space:pre;stroke:none;fill:rgb(74, 144, 226);font-size:15px;font-family:Arial, Helvetica, sans-serif;font-weight:400;font-style:normal;dominant-baseline:text-before-edge;text-decoration:none solid rgb(74, 144, 226);">)</text></g></g><g><g><text x="426.4750061035156" y="201.20001220703125" style="white-space:pre;stroke:none;fill:rgb(0, 0, 0);font-size:15px;font-family:Arial, Helvetica, sans-serif;font-weight:400;font-style:normal;dominant-baseline:text-before-edge;text-decoration:none solid rgb(0, 0, 0);">Constant </text><text x="490.6875305175781" y="201.20001220703125" style="white-space:pre;stroke:none;fill:rgb(74, 144, 226);font-size:15px;font-family:Arial, Helvetica, sans-serif;font-weight:400;font-style:normal;dominant-baseline:text-before-edge;text-decoration:none solid rgb(74, 144, 226);">(&quot;%d\n&quot;)</text></g></g></svg>
</svg>
